<svg width="56" height="56" viewBox="0 0 56 56" fill="none" xmlns="http://www.w3.org/2000/svg">
<g clip-path="url(#clip0_2_2)">
<path d="M46.375 47.25H43.75V42.875C43.75 42.1788 43.4734 41.5111 42.9812 41.0188C42.4889 40.5266 41.8212 40.25 41.125 40.25H38.5V35.875C38.5 35.1788 38.2234 34.5111 37.7312 34.0188C37.2389 33.5266 36.5712 33.25 35.875 33.25H0.875C0.642936 33.25 0.420376 33.3422 0.256282 33.5063C0.0921873 33.6704 0 33.8929 0 34.125L0 55.125C0 55.3571 0.0921873 55.5796 0.256282 55.7437C0.420376 55.9078 0.642936 56 0.875 56H48.125C48.3571 56 48.5796 55.9078 48.7437 55.7437C48.9078 55.5796 49 55.3571 49 55.125V49.875C49 49.1788 48.7234 48.5111 48.2312 48.0188C47.7389 47.5266 47.0712 47.25 46.375 47.25ZM24.5 35H35.875C36.1071 35 36.3296 35.0922 36.4937 35.2563C36.6578 35.4204 36.75 35.6429 36.75 35.875V40.25H24.5V35ZM14 35H22.75V40.25H14V35ZM1.75 35H12.25V40.25H1.75V35ZM1.75 42H7V47.25H1.75V42ZM12.25 54.25H1.75V49H12.25V54.25ZM8.75 47.25V42H17.5V47.25H8.75ZM24.5 54.25H14V49H24.5V54.25ZM19.25 47.25V42H29.75V47.25H19.25ZM35 54.25H26.25V49H35V54.25ZM31.5 47.25V42H41.125C41.3571 42 41.5796 42.0922 41.7437 42.2563C41.9078 42.4204 42 42.6429 42 42.875V47.25H31.5ZM47.25 54.25H36.75V49H46.375C46.6071 49 46.8296 49.0922 46.9937 49.2563C47.1578 49.4204 47.25 49.6429 47.25 49.875V54.25ZM52.9987 2.072C52.3325 1.43489 51.4461 1.07932 50.5243 1.07932C49.6024 1.07932 48.716 1.43489 48.0498 2.072L41.9685 8.15325C41.4764 8.64551 41.1999 9.31307 41.1999 10.0091C41.1999 10.7052 41.4764 11.3727 41.9685 11.865L37.0195 16.8157L35.0788 14.875C34.7936 14.5901 34.4467 14.3747 34.065 14.2454C33.6832 14.1162 33.2768 14.0766 32.8772 14.1298C32.4777 14.1829 32.0957 14.3273 31.761 14.5519C31.4263 14.7764 31.1477 15.075 30.947 15.4245L24.9638 25.8597C24.737 26.2585 24.6181 26.7094 24.6188 27.1681C24.6196 27.6268 24.74 28.0774 24.9681 28.4753C25.1963 28.8733 25.5242 29.2048 25.9197 29.4373C26.3151 29.6697 26.7643 29.795 27.223 29.8007C27.6332 29.7992 28.0375 29.7028 28.4043 29.519L39.396 24.094C39.769 23.9087 40.0927 23.6377 40.3407 23.3031C40.5886 22.9684 40.7536 22.5798 40.8222 22.169C40.8905 21.7587 40.8594 21.3379 40.7315 20.9421C40.6036 20.5463 40.3827 20.1869 40.0872 19.894L38.2568 18.0635L43.2057 13.1127C43.698 13.6049 44.3656 13.8813 45.0616 13.8813C45.7577 13.8813 46.4252 13.6049 46.9175 13.1127L52.9987 7.0315C53.3252 6.70632 53.5843 6.31987 53.761 5.89433C53.9378 5.46879 54.0288 5.01254 54.0288 4.55175C54.0288 4.09096 53.9378 3.63471 53.761 3.20917C53.5843 2.78363 53.3252 2.39718 52.9987 2.072ZM38.85 21.1207C38.9476 21.219 39.0205 21.3391 39.0627 21.4711C39.1048 21.603 39.1151 21.7431 39.0925 21.8798C39.07 22.0165 39.0153 22.1459 38.933 22.2573C38.8506 22.3687 38.743 22.459 38.619 22.5207L27.6272 27.9457C27.4585 28.0301 27.2671 28.0577 27.0815 28.0244C26.8958 27.9911 26.7259 27.8987 26.597 27.761C26.4682 27.6232 26.3872 27.4476 26.3663 27.2601C26.3454 27.0727 26.3856 26.8835 26.481 26.7207L32.4643 16.2872C32.5319 16.1713 32.6253 16.0725 32.7372 15.9985C32.8491 15.9244 32.9766 15.8771 33.1097 15.8602C33.2429 15.8433 33.3781 15.8572 33.505 15.9009C33.6319 15.9446 33.747 16.0169 33.8415 16.1122L38.85 21.1207ZM51.7615 5.78375L45.675 11.865C45.5109 12.029 45.2884 12.1212 45.0564 12.1212C44.8244 12.1212 44.6018 12.029 44.4377 11.865L43.2005 10.6277C43.0365 10.4637 42.9443 10.2411 42.9443 10.0091C42.9443 9.77711 43.0365 9.55459 43.2005 9.3905L49.2817 3.30925C49.6099 2.98118 50.055 2.79687 50.519 2.79687C50.983 2.79687 51.4281 2.98118 51.7563 3.30925C52.085 3.63673 52.2703 4.08137 52.2713 4.54541C52.2722 5.00945 52.0889 5.45488 51.7615 5.78375Z" fill="#CBA5EA"/>
</g>
<defs>
<clipPath id="clip0_2_2">
<rect width="56" height="56" fill="white"/>
</clipPath>
</defs>
</svg>
