<svg width="64" height="64" viewBox="0 0 64 64" fill="none" xmlns="http://www.w3.org/2000/svg">
<path d="M59 11H45.41L39.71 5.29C39.6251 5.21026 39.527 5.14596 39.42 5.1H39.32C39.237 5.08954 39.153 5.08954 39.07 5.1H15C14.7348 5.1 14.4804 5.20536 14.2929 5.39289C14.1054 5.58043 14 5.83478 14 6.1V11.1H5C4.73478 11.1 4.48043 11.2054 4.29289 11.3929C4.10536 11.5804 4 11.8348 4 12.1V48C4 48.2652 4.10536 48.5196 4.29289 48.7071C4.48043 48.8946 4.73478 49 5 49H27.61L26.28 53H23C22.7348 53 22.4804 53.1054 22.2929 53.2929C22.1054 53.4804 22 53.7348 22 54V58C22 58.2652 22.1054 58.5196 22.2929 58.7071C22.4804 58.8946 22.7348 59 23 59H41C41.2652 59 41.5196 58.8946 41.7071 58.7071C41.8946 58.5196 42 58.2652 42 58V54C42 53.7348 41.8946 53.4804 41.7071 53.2929C41.5196 53.1054 41.2652 53 41 53H37.72L36.39 49H59C59.2652 49 59.5196 48.8946 59.7071 48.7071C59.8946 48.5196 60 48.2652 60 48V12C60 11.7348 59.8946 11.4804 59.7071 11.2929C59.5196 11.1054 59.2652 11 59 11ZM40 8.41L44.29 12.7L46.59 15H40V8.41ZM16 7H38V16C38 16.2652 38.1054 16.5196 38.2929 16.7071C38.4804 16.8946 38.7348 17 39 17H48V41H16V7ZM37 55H40V57H24V55H37ZM28.39 53L29.72 49H34.28L35.61 53H28.39ZM58 47H6V13H14V14H8C7.73478 14 7.48043 14.1054 7.29289 14.2929C7.10536 14.4804 7 14.7348 7 15V42C7 42.2652 7.10536 42.5196 7.29289 42.7071C7.48043 42.8946 7.73478 43 8 43H56C56.2652 43 56.5196 42.8946 56.7071 42.7071C56.8946 42.5196 57 42.2652 57 42V15C57 14.7348 56.8946 14.4804 56.7071 14.2929C56.5196 14.1054 56.2652 14 56 14H48.41L47.41 13H58V47ZM14 16V41H9V16H14ZM50 41V16H55V41H50Z" fill="#CBA5EA"/>
<path d="M26.29 17.29L23 20.59L21.71 19.3C21.5187 19.1362 21.2726 19.0506 21.0209 19.0603C20.7693 19.07 20.5305 19.1743 20.3524 19.3524C20.1743 19.5305 20.07 19.7693 20.0603 20.0209C20.0506 20.2726 20.1362 20.5187 20.3 20.71L22.3 22.71C22.4874 22.8962 22.7408 23.0008 23.005 23.0008C23.2692 23.0008 23.5226 22.8962 23.71 22.71L27.71 18.71C27.8738 18.5187 27.9594 18.2726 27.9497 18.0209C27.94 17.7693 27.8357 17.5305 27.6576 17.3524C27.4795 17.1743 27.2407 17.07 26.9891 17.0603C26.7374 17.0506 26.4913 17.1362 26.3 17.3L26.29 17.29ZM43 19H31C30.7348 19 30.4804 19.1054 30.2929 19.2929C30.1054 19.4804 30 19.7348 30 20C30 20.2652 30.1054 20.5196 30.2929 20.7071C30.4804 20.8946 30.7348 21 31 21H43C43.2652 21 43.5196 20.8946 43.7071 20.7071C43.8946 20.5196 44 20.2652 44 20C44 19.7348 43.8946 19.4804 43.7071 19.2929C43.5196 19.1054 43.2652 19 43 19ZM31 25H37C37.2652 25 37.5196 24.8946 37.7071 24.7071C37.8946 24.5196 38 24.2652 38 24C38 23.7348 37.8946 23.4804 37.7071 23.2929C37.5196 23.1054 37.2652 23 37 23H31C30.7348 23 30.4804 23.1054 30.2929 23.2929C30.1054 23.4804 30 23.7348 30 24C30 24.2652 30.1054 24.5196 30.2929 24.7071C30.4804 24.8946 30.7348 25 31 25ZM37 35H31C30.7348 35 30.4804 35.1054 30.2929 35.2929C30.1054 35.4804 30 35.7348 30 36C30 36.2652 30.1054 36.5196 30.2929 36.7071C30.4804 36.8946 30.7348 37 31 37H37C37.2652 37 37.5196 36.8946 37.7071 36.7071C37.8946 36.5196 38 36.2652 38 36C38 35.7348 37.8946 35.4804 37.7071 35.2929C37.5196 35.1054 37.2652 35 37 35ZM26.29 29.29L23 32.59L21.71 31.3C21.5187 31.1362 21.2726 31.0506 21.0209 31.0603C20.7693 31.07 20.5305 31.1743 20.3524 31.3524C20.1743 31.5305 20.07 31.7693 20.0603 32.0209C20.0506 32.2726 20.1362 32.5187 20.3 32.71L22.3 34.71C22.4874 34.8962 22.7408 35.0008 23.005 35.0008C23.2692 35.0008 23.5226 34.8962 23.71 34.71L27.71 30.71C27.8738 30.5187 27.9594 30.2726 27.9497 30.0209C27.94 29.7693 27.8357 29.5305 27.6576 29.3524C27.4795 29.1743 27.2407 29.07 26.9891 29.0603C26.7374 29.0506 26.4913 29.1362 26.3 29.3L26.29 29.29ZM43 31H31C30.7348 31 30.4804 31.1054 30.2929 31.2929C30.1054 31.4804 30 31.7348 30 32C30 32.2652 30.1054 32.5196 30.2929 32.7071C30.4804 32.8946 30.7348 33 31 33H43C43.2652 33 43.5196 32.8946 43.7071 32.7071C43.8946 32.5196 44 32.2652 44 32C44 31.7348 43.8946 31.4804 43.7071 31.2929C43.5196 31.1054 43.2652 31 43 31Z" fill="#CBA5EA"/>
</svg>
