<svg width="58" height="58" viewBox="0 0 58 58" fill="none" xmlns="http://www.w3.org/2000/svg">
<path d="M35.6057 52.5625H31.7568C31.5165 52.5625 31.286 52.467 31.116 52.2971C30.946 52.1271 30.8506 51.8966 30.8506 51.6562V46.448C30.8506 46.2077 30.946 45.9772 31.116 45.8072C31.286 45.6373 31.5165 45.5418 31.7568 45.5418C31.9972 45.5418 32.2277 45.6373 32.3976 45.8072C32.5676 45.9772 32.6631 46.2077 32.6631 46.448V50.75H34.6994V46.8794C34.6995 46.6723 34.7705 46.4716 34.9006 46.3105C35.0307 46.1494 35.212 46.0377 35.4144 45.994C37.4424 45.5541 39.3742 44.7513 41.1166 43.6242C41.2907 43.512 41.498 43.4629 41.704 43.485C41.9099 43.5071 42.1021 43.599 42.2485 43.7456L44.9908 46.4906L49.2094 42.272L46.468 39.5297C46.3216 39.3834 46.2298 39.1914 46.2077 38.9856C46.1856 38.7799 46.2346 38.5728 46.3465 38.3987C47.4733 36.6555 48.2761 34.7232 48.7164 32.6948C48.7602 32.4925 48.872 32.3114 49.0331 32.1815C49.1942 32.0516 49.3948 31.9807 49.6018 31.9807H53.4688V26.0193H49.5982C49.3912 26.0193 49.1905 25.9484 49.0295 25.8185C48.8684 25.6886 48.7566 25.5075 48.7128 25.3052C48.5211 24.4214 48.2599 23.5542 47.9316 22.7115C47.8865 22.6003 47.8639 22.4812 47.8652 22.3612C47.8665 22.2412 47.8916 22.1226 47.939 22.0124C47.9865 21.9022 48.0554 21.8025 48.1418 21.7191C48.2281 21.6357 48.3301 21.5703 48.4419 21.5267C48.5537 21.483 48.6731 21.4621 48.7931 21.4649C48.9131 21.4678 49.0313 21.4945 49.1409 21.5434C49.2505 21.5924 49.3492 21.6626 49.4315 21.75C49.5137 21.8374 49.5778 21.9403 49.6199 22.0527C49.8945 22.7562 50.1266 23.4755 50.315 24.2068H54.375C54.6154 24.2068 54.8459 24.3023 55.0158 24.4723C55.1858 24.6422 55.2813 24.8727 55.2813 25.1131V32.8869C55.2813 33.1273 55.1858 33.3578 55.0158 33.5277C54.8459 33.6977 54.6154 33.7932 54.375 33.7932H50.315C49.8656 35.5366 49.1711 37.2074 48.2524 38.7558L51.1279 41.6313C51.2978 41.8013 51.3932 42.0317 51.3932 42.272C51.3932 42.5123 51.2978 42.7428 51.1279 42.9128L45.6315 48.4101C45.4584 48.5738 45.2291 48.665 44.9908 48.665C44.7525 48.665 44.5232 48.5738 44.3501 48.4101L41.4736 45.5336C39.9258 46.4529 38.2552 47.1477 36.5119 47.5972V51.6562C36.5119 51.8966 36.4164 52.1271 36.2465 52.2971C36.0765 52.467 35.846 52.5625 35.6057 52.5625ZM31.7568 42.823C31.5165 42.823 31.286 42.7276 31.116 42.5576C30.946 42.3876 30.8506 42.1571 30.8506 41.9168V38.4377C30.8506 38.1973 30.946 37.9668 31.116 37.7969C31.286 37.6269 31.5165 37.5314 31.7568 37.5314C33.5699 37.5296 35.3349 36.9483 36.7941 35.8722C38.2533 34.7961 39.3303 33.2817 39.8678 31.5502C40.2663 30.2751 40.36 28.9243 40.1414 27.6064C39.9227 26.2885 39.3978 25.0403 38.6088 23.9623C37.8198 22.8842 36.7888 22.0064 35.5987 21.3994C34.4086 20.7925 33.0927 20.4733 31.7568 20.4677C31.5165 20.4677 31.286 20.3722 31.116 20.2022C30.946 20.0323 30.8506 19.8018 30.8506 19.5614V6.34375C30.8506 6.1034 30.946 5.87289 31.116 5.70293C31.286 5.53298 31.5165 5.4375 31.7568 5.4375H35.6057C35.846 5.4375 36.0765 5.53298 36.2465 5.70293C36.4164 5.87289 36.5119 6.1034 36.5119 6.34375V10.4028C38.2552 10.8523 39.9258 11.5471 41.4736 12.4664L44.3501 9.58994C44.5232 9.4262 44.7525 9.33497 44.9908 9.33497C45.2291 9.33497 45.4584 9.4262 45.6315 9.58994L51.1279 15.0873C51.2122 15.1714 51.279 15.2714 51.3246 15.3814C51.3702 15.4914 51.3937 15.6093 51.3937 15.7284C51.3937 15.8475 51.3702 15.9654 51.3246 16.0755C51.279 16.1855 51.2122 16.2854 51.1279 16.3696L48.3484 19.1491C48.2648 19.2356 48.1648 19.3047 48.0543 19.3522C47.9437 19.3996 47.8248 19.4247 47.7045 19.4257C47.5841 19.4267 47.4648 19.4038 47.3534 19.3582C47.242 19.3127 47.1409 19.2454 47.0558 19.1603C46.9707 19.0752 46.9034 18.974 46.8578 18.8626C46.8123 18.7513 46.7893 18.6319 46.7904 18.5116C46.7914 18.3913 46.8164 18.2724 46.8639 18.1618C46.9114 18.0512 46.9804 17.9512 47.067 17.8676L49.2058 15.728L44.9908 11.5094L42.2485 14.2517C42.1021 14.3982 41.9099 14.4902 41.704 14.5123C41.498 14.5344 41.2907 14.4853 41.1166 14.3731C39.3742 13.246 37.4424 12.4432 35.4144 12.0033C35.212 11.9596 35.0307 11.8479 34.9006 11.6868C34.7705 11.5257 34.6995 11.3249 34.6994 11.1179V7.25H32.6631V18.6987C34.2005 18.8393 35.6869 19.3221 37.0135 20.1117C38.3401 20.9014 39.4732 21.9778 40.3298 23.2622C41.1864 24.5466 41.7448 26.0063 41.964 27.5345C42.1833 29.0627 42.0578 30.6205 41.5969 32.0939C40.9912 34.0456 39.8187 35.773 38.2285 37.0565C36.6383 38.3399 34.7023 39.1213 32.6667 39.3013V41.9168C32.6667 42.0361 32.6431 42.1542 32.5974 42.2644C32.5516 42.3746 32.4845 42.4747 32.4 42.5589C32.3154 42.6431 32.2151 42.7098 32.1047 42.7551C31.9944 42.8004 31.8761 42.8235 31.7568 42.823ZM17.6818 47.4241C17.5198 47.4242 17.3607 47.3809 17.221 47.2987C17.0814 47.2164 16.9664 47.0982 16.888 46.9564C16.7856 46.7752 16.6922 46.5776 16.6007 46.3719C16.5092 46.1662 16.4276 45.9849 16.3614 45.8019C16.3382 45.7503 16.3182 45.6973 16.3016 45.6433C16.2792 45.5913 16.2607 45.5377 16.2463 45.4829C16.1912 45.3457 16.1446 45.2053 16.1068 45.0624C16.0698 44.9575 16.0396 44.8503 16.0162 44.7416L15.9699 44.5812C15.9609 44.5513 15.9536 44.5204 15.9464 44.4905C15.8941 44.2893 15.8509 44.0858 15.8168 43.8806C15.7922 43.7719 15.7725 43.6621 15.7579 43.5517L15.7379 43.4221C15.7168 43.2786 15.7014 43.1344 15.6917 42.9898C15.6745 42.8513 15.6621 42.7123 15.6546 42.5729C15.6426 42.3568 15.6359 42.1405 15.6346 41.924C15.6346 41.6837 15.7301 41.4532 15.9001 41.2832C16.07 41.1133 16.3005 41.0178 16.5409 41.0178C16.7812 41.0178 17.0117 41.1133 17.1817 41.2832C17.3516 41.4532 17.4471 41.6837 17.4471 41.924C17.4471 42.1053 17.4553 42.2929 17.4643 42.4678C17.4707 42.5693 17.4779 42.6853 17.4933 42.8013C17.506 42.9472 17.5124 43.0405 17.5269 43.1357L17.5495 43.278C17.5631 43.3686 17.5749 43.4511 17.5948 43.5363C17.6329 43.7628 17.6719 43.916 17.7099 44.07L17.7208 44.1172L17.7661 44.2757C17.7848 44.3585 17.8081 44.4402 17.8359 44.5204C17.8677 44.6384 17.9073 44.754 17.9546 44.8666C17.9725 44.909 17.9874 44.9526 17.999 44.9971C18.0108 45.027 18.0208 45.0578 18.0298 45.0877C18.0405 45.1108 18.0499 45.1344 18.0579 45.1584C18.1105 45.308 18.1785 45.4566 18.2455 45.6061C18.3262 45.7874 18.3969 45.936 18.4748 46.0783C18.551 46.2161 18.59 46.3714 18.588 46.5289C18.5859 46.6864 18.5428 46.8407 18.4629 46.9764C18.383 47.1122 18.2692 47.2248 18.1325 47.3031C17.9959 47.3815 17.8412 47.4228 17.6837 47.4232L17.6818 47.4241ZM7.88437 36.83C7.72537 36.8298 7.56921 36.7878 7.43158 36.7082C7.29394 36.6286 7.17967 36.5142 7.10024 36.3765C7.02081 36.2387 6.97901 36.0825 6.97905 35.9235C6.97909 35.7645 7.02097 35.6083 7.10047 35.4706C7.25274 35.2063 7.42133 34.9518 7.60525 34.7085C7.73268 34.5309 7.87132 34.3617 8.02031 34.2019C8.08189 34.12 8.15042 34.0436 8.22512 33.9735C8.33297 33.8521 8.44806 33.7361 8.57041 33.621C8.62373 33.5614 8.6826 33.5071 8.74622 33.4587C8.82597 33.3872 8.90753 33.3183 8.99 33.2476L9.12866 33.1298C9.15981 33.1021 9.19315 33.0769 9.22834 33.0546C9.65334 32.7283 10.1085 32.4433 10.5877 32.2036L10.6521 32.1719L10.6811 32.1565C10.8908 32.0535 11.1052 31.9603 11.3236 31.8773C11.5754 31.7791 11.8323 31.6941 12.093 31.6227C12.2097 31.5863 12.3325 31.5739 12.4541 31.5863C12.5757 31.5986 12.6935 31.6354 12.8005 31.6944C12.9075 31.7535 13.0015 31.8336 13.0767 31.9299C13.152 32.0262 13.207 32.1367 13.2384 32.2548C13.2698 32.3729 13.2771 32.4961 13.2596 32.6171C13.2422 32.738 13.2005 32.8542 13.137 32.9587C13.0735 33.0631 12.9896 33.1536 12.8902 33.2247C12.7909 33.2959 12.6781 33.3462 12.5588 33.3727C12.3587 33.4293 12.1615 33.4958 11.9679 33.572C11.8044 33.6329 11.6441 33.7022 11.4876 33.7796C11.4641 33.7924 11.4403 33.8044 11.416 33.8158L11.3997 33.824C11.0437 34.0019 10.7041 34.2109 10.3847 34.4484C10.3485 34.4792 10.3122 34.5073 10.276 34.5327L10.1591 34.6332C10.0857 34.694 10.0141 34.7556 9.94519 34.8145C9.92525 34.8326 9.90441 34.8507 9.88356 34.8671C9.86272 34.8834 9.85637 34.8943 9.84278 34.9069C9.74392 34.9975 9.65013 35.0934 9.56184 35.1942C9.53108 35.2304 9.49744 35.2641 9.46125 35.2948C9.43628 35.3312 9.40872 35.3657 9.37878 35.3981C9.26586 35.5175 9.1611 35.6444 9.06522 35.7778C8.92117 35.9675 8.7892 36.1661 8.67009 36.3723C8.59105 36.5111 8.47676 36.6265 8.33879 36.7068C8.20081 36.7872 8.04405 36.8297 7.88437 36.83Z" fill="#CBA5EA"/>
<path d="M26.2314 18.6325C25.9911 18.6325 25.7605 18.728 25.5906 18.8979C25.4206 19.0679 25.3252 19.2984 25.3252 19.5387V47.0788C25.3216 47.7651 25.0465 48.4221 24.56 48.9063C24.0734 49.3904 23.4151 49.6623 22.7288 49.6625C22.2125 49.6607 21.709 49.5027 21.2842 49.2094C20.1223 48.4131 19.1642 47.3544 18.4875 46.1191C18.4812 46.1064 18.4821 46.0919 18.4748 46.0792C18.392 45.925 18.3155 45.7675 18.2455 45.607C18.1785 45.4575 18.1105 45.3089 18.0579 45.1593C18.0499 45.1353 18.0405 45.1117 18.0298 45.0887C18.0211 45.058 18.0108 45.0277 17.999 44.998C17.9874 44.9535 17.9725 44.9099 17.9546 44.8675C17.9073 44.7549 17.8677 44.6393 17.8359 44.5213C17.8081 44.4411 17.7848 44.3594 17.7661 44.2767L17.7208 44.1181L17.7099 44.0709C17.6719 43.9169 17.6329 43.7637 17.5948 43.5372C17.5749 43.452 17.5631 43.3668 17.5495 43.2789L17.5269 43.1366C17.5124 43.046 17.506 42.9481 17.4933 42.8022C17.4779 42.6862 17.4707 42.5702 17.4643 42.4687C17.4553 42.2929 17.4471 42.1062 17.4471 41.9249C17.4468 41.4291 17.4881 40.934 17.5704 40.445C17.6105 40.208 17.5549 39.9648 17.4157 39.7689C17.2765 39.5729 17.0651 39.4403 16.8282 39.4001C16.5912 39.36 16.3479 39.4156 16.152 39.5548C15.956 39.694 15.8234 39.9054 15.7833 40.1423C15.6839 40.7313 15.6342 41.3276 15.6346 41.9249C15.6346 42.1397 15.6437 42.3536 15.6546 42.5738C15.6645 42.7279 15.6763 42.8847 15.6917 42.9907C15.7026 43.1312 15.7144 43.2725 15.7379 43.423L15.7579 43.5526C15.7787 43.6885 15.7996 43.8244 15.8168 43.8815C15.8558 44.1175 15.9069 44.3513 15.9699 44.5821L16.0162 44.7425C16.0396 44.8512 16.0698 44.9584 16.1068 45.0633C16.1446 45.2062 16.1912 45.3466 16.2463 45.4838C16.2607 45.5386 16.2792 45.5922 16.3016 45.6442C16.3182 45.6983 16.3382 45.7512 16.3614 45.8028C16.3895 45.8807 16.4294 45.9659 16.4629 46.0457C15.7882 46.2786 15.0797 46.3983 14.3659 46.4C12.6064 46.4002 10.9187 45.7027 9.67291 44.4602C8.4271 43.2178 7.7249 41.532 7.72035 39.7726C7.71519 38.5885 8.03458 37.4257 8.64381 36.4104C8.65197 36.3986 8.66194 36.3896 8.66919 36.3778C8.78768 36.1713 8.91904 35.9724 9.0625 35.7824C9.15839 35.6489 9.26314 35.5221 9.37606 35.4027C9.406 35.3702 9.43357 35.3357 9.45853 35.2993C9.49473 35.2686 9.52837 35.2349 9.55913 35.1988C9.64741 35.0979 9.7412 35.002 9.84006 34.9115L9.88084 34.8716C9.89353 34.858 9.92253 34.8372 9.94247 34.819C10.0113 34.7556 10.0829 34.694 10.1563 34.6378L10.2733 34.5372C10.311 34.5111 10.3473 34.483 10.382 34.4529C10.7012 34.2154 11.0408 34.0067 11.397 33.8294L11.4142 33.8203C11.6027 33.7243 11.7963 33.6386 11.9942 33.5639C12.1812 33.4876 12.3731 33.4244 12.5688 33.3745C12.7727 33.3174 12.992 33.2693 13.2032 33.2277C13.4391 33.1815 13.647 33.0435 13.7812 32.8441C13.9153 32.6447 13.9648 32.4001 13.9186 32.1642C13.8725 31.9283 13.7345 31.7204 13.5351 31.5862C13.3356 31.452 13.0911 31.4025 12.8552 31.4487C12.5972 31.4971 12.3417 31.5576 12.0894 31.6299C11.8274 31.6972 11.5703 31.7823 11.32 31.8846C11.1016 31.968 10.885 32.0658 10.6774 32.1637L10.6484 32.1791L10.5841 32.2108C10.1049 32.4506 9.64972 32.7355 9.22472 33.0618C9.18953 33.0842 9.15619 33.1093 9.12503 33.137L8.98638 33.2548C8.90391 33.3246 8.82235 33.3944 8.7426 33.466C8.67898 33.5144 8.62011 33.5687 8.56678 33.6282C8.44608 33.7398 8.33114 33.8575 8.22241 33.9807C8.14716 34.0506 8.07832 34.127 8.01669 34.2091C7.89329 34.3446 7.77713 34.4865 7.66869 34.6342C6.63002 33.7661 5.80584 32.67 5.2604 31.4311C4.71495 30.1922 4.46297 28.8441 4.52411 27.4919C4.58524 26.1396 4.95784 24.8198 5.61285 23.6352C6.26786 22.4506 7.18759 21.4333 8.30035 20.6625C8.40157 20.5961 8.48846 20.51 8.55588 20.4094C8.6233 20.3089 8.66987 20.1958 8.69286 20.0769C8.71585 19.958 8.71478 19.8357 8.68972 19.7173C8.66466 19.5988 8.61611 19.4866 8.54695 19.3872C8.47778 19.2878 8.3894 19.2033 8.28703 19.1386C8.18465 19.074 8.07036 19.0305 7.9509 19.0107C7.83144 18.991 7.70923 18.9954 7.59149 19.0237C7.47375 19.0519 7.36288 19.1035 7.26541 19.1753C5.90701 20.119 4.78795 21.3671 3.99753 22.8201C3.2071 24.273 2.76718 25.8906 2.71286 27.5437C2.65855 29.1969 2.99133 30.8398 3.68468 32.3415C4.37802 33.8432 5.41273 35.1621 6.70625 36.1929C6.10171 37.4803 5.83252 38.8996 5.92373 40.3189C6.01493 41.7383 6.46356 43.1115 7.22789 44.3109C7.99223 45.5103 9.04745 46.4969 10.2954 47.1791C11.5434 47.8612 12.9436 48.2167 14.3659 48.2125C15.3694 48.2128 16.3646 48.0307 17.303 47.6751C18.0791 48.8724 19.0855 49.9035 20.2638 50.7083C20.9887 51.2081 21.8482 51.4763 22.7288 51.4777C23.8962 51.4777 25.016 51.0147 25.8425 50.1902C26.669 49.3657 27.1348 48.2471 27.1377 47.0797V19.5387C27.1377 19.2984 27.0422 19.0679 26.8722 18.8979C26.7023 18.728 26.4718 18.6325 26.2314 18.6325Z" fill="#CBA5EA"/>
<path d="M22.7351 6.525C21.9123 6.52645 21.108 6.76974 20.4223 7.22463C19.646 7.73379 18.9403 8.34322 18.3235 9.03713C17.9628 8.99202 17.5995 8.97022 17.236 8.97188C15.2206 8.97864 13.2546 9.5961 11.5973 10.7428C9.93992 11.8896 8.66908 13.5117 7.95235 15.3954C7.90701 15.5074 7.88455 15.6274 7.88627 15.7482C7.88798 15.8691 7.91386 15.9883 7.96236 16.099C8.01086 16.2097 8.08101 16.3096 8.16869 16.3928C8.25636 16.4759 8.35979 16.5407 8.47288 16.5834C8.58597 16.626 8.70644 16.6455 8.8272 16.6409C8.94797 16.6363 9.06658 16.6075 9.17607 16.5564C9.28556 16.5052 9.38371 16.4326 9.46475 16.343C9.54579 16.2533 9.60807 16.1484 9.64794 16.0343C10.2243 14.5261 11.236 13.2232 12.5545 12.2913C13.873 11.3595 15.4388 10.8406 17.0529 10.8007C16.97 10.9328 16.8952 11.0699 16.8291 11.2112C16.7431 11.3633 16.6656 11.52 16.5971 11.6807L16.5789 11.7223C16.4635 11.9632 16.3618 12.2104 16.2744 12.4628C16.2744 12.4754 16.2663 12.4881 16.2618 12.5008L16.2409 12.5579C16.1418 12.8174 16.0592 13.0828 15.9935 13.3527C15.9481 13.5077 15.9094 13.6647 15.8775 13.823L15.795 14.2318C15.788 14.2668 15.7831 14.3022 15.7805 14.3378V14.3514C15.7639 14.4306 15.7503 14.5104 15.7398 14.5906L15.7171 14.7492C15.6969 14.8976 15.6818 15.0466 15.6718 15.196V15.2295C15.6653 15.2776 15.6629 15.3261 15.6645 15.3745C15.6447 15.6157 15.6347 15.8576 15.6346 16.0995C15.631 17.1265 15.7782 18.1485 16.0714 19.1328C16.5342 20.6682 17.3364 22.08 18.4186 23.2634C18.5809 23.4408 18.8069 23.5465 19.0471 23.5572C19.2872 23.5679 19.5218 23.4828 19.6992 23.3205C19.8765 23.1583 19.9822 22.9322 19.9929 22.6921C20.0036 22.4519 19.9185 22.2174 19.7563 22.04C18.8578 21.0574 18.1916 19.8854 17.8069 18.6108C17.5639 17.7959 17.4418 16.9498 17.4444 16.0995C17.4444 15.9074 17.4526 15.7153 17.468 15.4443C17.4734 15.4126 17.477 15.3356 17.4788 15.3029C17.4861 15.1906 17.4997 15.0836 17.5133 14.9703L17.5332 14.8389C17.5375 14.7966 17.5445 14.7545 17.5541 14.713C17.5661 14.6642 17.574 14.6145 17.5776 14.5643V14.5408L17.651 14.1738C17.6728 14.0614 17.7036 13.9499 17.7417 13.8194C17.7553 13.765 17.777 13.7116 17.7915 13.6572C17.8421 13.4718 17.9005 13.2885 17.9664 13.108L17.9764 13.0781C18.0461 12.8726 18.1284 12.6717 18.2229 12.4763C18.2354 12.4517 18.2463 12.4263 18.2555 12.4002C18.3004 12.2928 18.3522 12.1883 18.4105 12.0876C18.4311 12.0536 18.4493 12.0181 18.4648 11.9815C18.5147 11.8761 18.5704 11.7736 18.6316 11.6743C18.6532 11.6452 18.6731 11.615 18.6914 11.5837C18.7894 11.4152 18.8946 11.251 19.0068 11.0916C19.1238 10.9202 19.2496 10.7551 19.3838 10.5968C19.3901 10.5868 19.3958 10.5765 19.401 10.566C19.9736 9.85612 20.6529 9.23947 21.4147 8.73806C21.8055 8.47688 22.265 8.33748 22.7351 8.3375C23.4219 8.34997 24.0767 8.62983 24.5604 9.11756C25.0441 9.6053 25.3184 10.2625 25.3252 10.9493V15.0075C25.3252 15.2479 25.4206 15.4784 25.5906 15.6483C25.7605 15.8183 25.9911 15.9138 26.2314 15.9138C26.4718 15.9138 26.7023 15.8183 26.8722 15.6483C27.0422 15.4784 27.1377 15.2479 27.1377 15.0075V10.9529C27.1401 9.78223 26.6778 8.65841 25.8524 7.82822C25.0269 6.99803 23.9058 6.52932 22.7351 6.525Z" fill="#CBA5EA"/>
</svg>
